<svg width="773" height="81" viewBox="0 0 773 81" fill="none" xmlns="http://www.w3.org/2000/svg">
<path d="M41.1003 0.599609H22.7726L61.4897 40.6171L22.8944 80.5996H41.222L48.0356 73.4572L80 40.6171L41.1003 0.599609Z" fill="white"/>
<path d="M14.1263 33.9016C9.41957 33.9054 4.70674 33.8979 0 33.9016V48.5495C4.70674 48.5533 9.41957 48.5458 14.1263 48.5495C14.1227 43.6694 14.1227 38.7818 14.1263 33.9016Z" fill="white"/>
<path d="M27.8873 19.379H14.1263C14.1239 24.2178 14.13 29.0628 14.1263 33.9016C18.7113 33.8979 23.3023 33.9054 27.8873 33.9016V19.379Z" fill="white"/>
<path d="M27.8873 63.1974V48.5495C23.3023 48.5458 18.7113 48.5533 14.1263 48.5495C14.13 53.4297 14.1239 58.3173 14.1263 63.1974H27.8873Z" fill="white"/>
<path d="M199.359 40.5996C199.359 27.3448 188.614 16.5996 175.359 16.5996C162.105 16.5996 151.359 27.3448 151.359 40.5996C151.359 53.8544 162.105 64.5996 175.359 64.5996V72.5996C157.686 72.5996 143.359 58.2727 143.359 40.5996C143.359 22.9265 157.686 8.59961 175.359 8.59961C193.032 8.59961 207.359 22.9265 207.359 40.5996C207.359 58.2727 193.032 72.5996 175.359 72.5996V64.5996C188.614 64.5996 199.359 53.8544 199.359 40.5996Z" fill="white"/>
<path d="M96 72.5992V72.1192L114.8 10.1992H135.84L154.72 72.1192V72.5992H140.96L125.84 20.5992H123.92L108.64 72.5992H96ZM111.6 56.9992L114.4 46.9192H135.36L138.16 56.9992H111.6Z" fill="white"/>
<path d="M183.448 25.0502C183.448 26.2742 182.943 27.3126 181.934 28.1657C180.966 29.0187 179.788 29.4452 178.4 29.4452C177.012 29.4452 175.835 29.0187 174.867 28.1657C173.9 27.3126 173.416 26.2742 173.416 25.0502C173.416 23.8263 173.9 22.7878 174.867 21.9348C175.835 21.0447 177.012 20.5996 178.4 20.5996C179.788 20.5996 180.966 21.0447 181.934 21.9348C182.943 22.7878 183.448 23.8263 183.448 25.0502ZM167.359 53.9237C167.359 53.4415 167.401 52.9037 167.486 52.3103C167.57 51.6798 167.696 51.0122 167.864 50.3075L172.154 32.4494H181.24L176.697 51.3646C176.613 51.6984 176.55 52.0136 176.508 52.3103C176.466 52.5699 176.445 52.8481 176.445 53.1448C176.445 53.8866 176.634 54.4244 177.012 54.7582C177.433 55.0549 178.106 55.2032 179.031 55.2032C180.209 55.2032 181.324 54.7582 182.375 53.868C183.427 52.9408 184.205 51.754 184.71 50.3075H187.359C186.013 53.6826 184.205 56.2417 181.934 57.9849C179.662 59.728 177.054 60.5996 174.11 60.5996C172.007 60.5996 170.346 60.0247 169.126 58.875C167.948 57.6882 167.359 56.0377 167.359 53.9237Z" fill="white"/>
<path d="M223.359 71.7996V9.39958H245.599C256.693 9.39958 264.746 12.1463 269.759 17.6396C274.773 23.0796 277.279 30.7329 277.279 40.5996C277.279 50.4663 274.773 58.1463 269.759 63.6396C264.746 69.0796 256.693 71.7996 245.599 71.7996H223.359ZM236.799 61.3996H244.799C248.906 61.3996 252.319 60.7863 255.039 59.5596C257.813 58.2796 259.893 56.1463 261.279 53.1596C262.666 50.1196 263.359 45.9329 263.359 40.5996C263.359 35.2663 262.666 31.1063 261.279 28.1196C259.893 25.0796 257.813 22.9463 255.039 21.7196C252.319 20.4396 248.906 19.7996 244.799 19.7996H236.799V61.3996Z" fill="white"/>
<path d="M285.797 71.7996V9.39958H328.357V19.9596H299.077V33.7196H321.637V43.4796H299.077V61.2396H328.837V71.7996H285.797Z" fill="white"/>
<path d="M359.944 72.9996C355.091 72.9996 350.984 72.3596 347.624 71.0796C344.318 69.7463 341.624 68.0129 339.544 65.8796C337.518 63.7463 335.998 61.4263 334.984 58.9196C334.024 56.3596 333.464 53.8529 333.304 51.3996H345.784C345.891 53.3196 346.478 55.1596 347.544 56.9196C348.611 58.6796 350.211 60.1196 352.344 61.2396C354.478 62.3596 357.144 62.9196 360.344 62.9196C363.811 62.9196 366.371 62.2263 368.024 60.8396C369.731 59.3996 370.584 57.5329 370.584 55.2396C370.584 53.0529 369.838 51.2663 368.344 49.8796C366.904 48.4929 364.984 47.3996 362.584 46.5996L353.544 43.5596C350.664 42.5996 347.891 41.4263 345.224 40.0396C342.611 38.5996 340.451 36.7329 338.744 34.4396C337.038 32.0929 336.184 29.1063 336.184 25.4796C336.184 21.7463 337.118 18.5996 338.984 16.0396C340.904 13.4796 343.518 11.5329 346.824 10.1996C350.184 8.86625 354.024 8.19958 358.344 8.19958C363.891 8.19958 368.264 9.13292 371.464 10.9996C374.664 12.8663 376.984 15.2396 378.424 18.1196C379.918 20.9463 380.824 23.9063 381.144 26.9996H368.664C368.558 25.5063 368.131 24.0929 367.384 22.7596C366.691 21.3729 365.571 20.2529 364.024 19.3996C362.478 18.5463 360.398 18.1196 357.784 18.1196C354.851 18.1196 352.664 18.7329 351.224 19.9596C349.838 21.1863 349.144 22.7329 349.144 24.5996C349.144 26.6263 349.864 28.2529 351.304 29.4796C352.798 30.7063 354.771 31.7463 357.224 32.5996L366.264 35.6396C369.198 36.5996 371.971 37.7996 374.584 39.2396C377.198 40.6796 379.331 42.5996 380.984 44.9996C382.691 47.3463 383.544 50.4396 383.544 54.2796C383.544 60.0929 381.464 64.6796 377.304 68.0396C373.198 71.3463 367.411 72.9996 359.944 72.9996Z" fill="white"/>
<path d="M392.953 71.7996V9.39958H406.393V71.7996H392.953Z" fill="white"/>
<path d="M441.907 72.9196C436.2 72.9196 431.32 71.5863 427.267 68.9196C423.267 66.1996 420.2 62.4129 418.067 57.5596C415.934 52.6529 414.867 46.9463 414.867 40.4396C414.867 33.8263 415.96 28.1196 418.147 23.3196C420.387 18.5196 423.64 14.8129 427.907 12.1996C432.227 9.58625 437.534 8.27958 443.827 8.27958C449.267 8.27958 453.827 9.21292 457.507 11.0796C461.187 12.9463 464.067 15.5329 466.147 18.8396C468.227 22.0929 469.56 25.8796 470.147 30.1996H457.347C456.707 26.3596 455.24 23.4263 452.947 21.3996C450.654 19.3729 447.56 18.3596 443.667 18.3596C438.494 18.3596 434.627 20.3063 432.067 24.1996C429.56 28.0396 428.307 33.4796 428.307 40.5196C428.307 47.7196 429.614 53.2663 432.227 57.1596C434.894 61.0529 438.814 62.9996 443.987 62.9996C448.307 62.9996 451.64 61.7463 453.987 59.2396C456.334 56.6796 457.64 53.2396 457.907 48.9196H440.307V39.2396H470.227V71.7996H460.547V64.5996H458.627C457.56 66.7329 455.72 68.6529 453.107 70.3596C450.547 72.0663 446.814 72.9196 441.907 72.9196Z" fill="white"/>
<path d="M480.141 71.7996V9.39958H503.341L522.701 61.2396H524.621V9.39958H536.781V71.7996H513.421L494.141 19.9596H492.301V71.7996H480.141Z" fill="white"/>
<path d="M581.341 72.9996C572.275 72.9996 565.235 70.1463 560.221 64.4396C555.261 58.7329 552.781 50.7863 552.781 40.5996C552.781 30.5196 555.235 22.5996 560.141 16.8396C565.048 11.0796 572.088 8.19958 581.261 8.19958C586.755 8.19958 591.448 9.23959 595.341 11.3196C599.235 13.3463 602.275 16.1729 604.461 19.7996C606.648 23.4263 607.928 27.5863 608.301 32.2796H594.941C594.515 27.9063 593.101 24.4929 590.701 22.0396C588.301 19.5329 585.181 18.2796 581.341 18.2796C576.488 18.2796 572.835 20.2262 570.381 24.1196C567.928 28.0129 566.701 33.5329 566.701 40.6796C566.701 48.0929 567.955 53.6662 570.461 57.3996C573.021 61.0796 576.621 62.9196 581.261 62.9196C585.261 62.9196 588.435 61.6396 590.781 59.0796C593.181 56.5196 594.568 53.1329 594.941 48.9196H608.301C607.928 53.6129 606.648 57.7729 604.461 61.3996C602.275 65.0262 599.235 67.8796 595.341 69.9596C591.501 71.9863 586.835 72.9996 581.341 72.9996Z" fill="white"/>
<path d="M614.868 71.7996V9.39958H628.307V61.2396H654.387V71.7996H614.868Z" fill="white"/>
<path d="M684.006 72.9996C674.993 72.9996 668.273 70.6796 663.846 66.0396C659.473 61.3462 657.286 54.6529 657.286 45.9596V9.39958H670.886V45.5596C670.886 50.6796 671.846 54.6796 673.766 57.5596C675.74 60.4396 679.206 61.8796 684.166 61.8796C689.18 61.8796 692.646 60.4396 694.566 57.5596C696.486 54.6796 697.446 50.6796 697.446 45.5596V9.39958H710.726V45.9596C710.726 54.6529 708.54 61.3462 704.166 66.0396C699.793 70.6796 693.073 72.9996 684.006 72.9996Z" fill="white"/>
<path d="M722.118 71.7996V9.39958H746.598C754.384 9.39958 760.011 10.8129 763.478 13.6396C766.944 16.4663 768.678 20.2796 768.678 25.0796C768.678 28.1729 767.931 30.6796 766.438 32.5996C764.944 34.5196 762.678 35.9329 759.638 36.8396V38.7596C763.691 39.6663 766.758 41.2663 768.838 43.5596C770.971 45.8529 772.038 49.1863 772.038 53.5596C772.038 59.0529 770.224 63.4796 766.598 66.8396C763.024 70.1463 757.104 71.7996 748.838 71.7996H722.118ZM734.918 62.1996H747.078C751.131 62.1996 754.064 61.3996 755.878 59.7996C757.691 58.1463 758.598 55.9063 758.598 53.0796C758.598 49.9329 757.584 47.6396 755.558 46.1996C753.531 44.7063 750.704 43.9596 747.078 43.9596H734.918V62.1996ZM734.918 34.5196H745.638C748.678 34.5196 751.078 33.9063 752.838 32.6796C754.651 31.3996 755.558 29.4263 755.558 26.7596C755.558 21.5863 752.251 18.9996 745.638 18.9996H734.918V34.5196Z" fill="white"/>
</svg>
