<svg width="144" height="145" viewBox="0 0 144 145" fill="none" xmlns="http://www.w3.org/2000/svg">
<path d="M73.9805 0.599609H40.9907L110.681 72.6312L41.2099 144.6H74.1997L86.464 131.743L144 72.6312L73.9805 0.599609Z" fill="white"/>
<path d="M25.4274 60.5433C16.9552 60.55 8.47214 60.5365 0 60.5433V86.9095C8.47214 86.9162 16.9552 86.9027 25.4274 86.9095C25.4208 78.1252 25.4208 69.3275 25.4274 60.5433Z" fill="white"/>
<path d="M50.1971 34.4024H25.4274C25.423 43.1123 25.4339 51.8334 25.4274 60.5433C33.6803 60.5365 41.9442 60.55 50.1971 60.5433V34.4024Z" fill="white"/>
<path d="M50.1971 113.276V86.9095C41.9442 86.9027 33.6803 86.9162 25.4274 86.9095C25.4339 95.6937 25.423 104.491 25.4274 113.276H50.1971Z" fill="white"/>
</svg>
