<svg width="408" height="149" viewBox="0 0 408 149" fill="none" xmlns="http://www.w3.org/2000/svg">
<path d="M144 76.6309L86.4648 135.744L74.1992 148.6H41.2109L110.68 76.6309L40.9922 4.59961H73.9805L144 76.6309Z" fill="white"/>
<path d="M335.609 99.4941C335.413 100.266 335.266 100.996 335.168 101.682C335.07 102.282 335.02 102.926 335.02 103.611C335.02 105.326 335.464 106.57 336.348 107.342C337.33 108.027 338.9 108.369 341.059 108.369C343.808 108.369 346.412 107.341 348.867 105.283C351.322 103.139 353.138 100.394 354.316 97.0488H360.504C357.361 104.854 353.139 110.772 347.836 114.803C342.533 118.834 336.445 120.85 329.57 120.85C324.66 120.85 320.781 119.52 317.934 116.861C315.184 114.117 313.809 110.301 313.809 105.412C313.809 104.297 313.905 103.053 314.102 101.682C314.298 100.224 314.595 98.6784 314.988 97.0488L325.004 55.752H346.215L335.609 99.4941Z" fill="white"/>
<path d="M339.586 28.3496C342.826 28.3496 345.577 29.3777 347.836 31.4355C350.193 33.4082 351.371 35.8123 351.371 38.6426C351.371 41.4725 350.192 43.8733 347.836 45.8457C345.577 47.8184 342.827 48.8066 339.586 48.8066C336.346 48.8064 333.598 47.8176 331.34 45.8457C329.081 43.8733 327.949 41.4725 327.949 38.6426C327.949 35.8123 329.081 33.4082 331.34 31.4355C333.598 29.3785 336.347 28.3498 339.586 28.3496Z" fill="white"/>
<path fill-rule="evenodd" clip-rule="evenodd" d="M332.488 0.599609C373.751 0.600328 407.199 33.731 407.199 74.5996C407.199 115.468 373.751 148.599 332.488 148.6C310.561 148.6 290.839 139.243 277.172 124.342L284.297 147.49V148.6H252.172L241.582 112.525H187.414L176.711 148.6H147.199V147.49L191.094 4.29883H240.219L258.555 63.8691C263.803 28.0854 294.905 0.599609 332.488 0.599609ZM332.488 19.0996C301.541 19.0996 276.453 43.9478 276.453 74.5996C276.453 105.251 301.541 130.1 332.488 130.1C363.435 130.099 388.523 105.251 388.523 74.5996C388.523 43.9482 363.435 19.1003 332.488 19.0996ZM194.328 89.2129H234.738L216.871 28.3496H212.387L194.328 89.2129Z" fill="white"/>
<path d="M50.1953 117.275H25.4258C25.4214 108.491 25.4324 99.6923 25.4258 90.9082C33.6781 90.915 41.943 90.9014 50.1953 90.9082V117.275Z" fill="white"/>
<path d="M25.4258 90.9082C16.9542 90.9014 8.47161 90.915 0 90.9082V64.5449C8.47161 64.5382 16.9542 64.5517 25.4258 64.5449C25.4192 73.3282 25.4192 82.1249 25.4258 90.9082Z" fill="white"/>
<path d="M50.1953 64.5449C41.943 64.5517 33.6781 64.5382 25.4258 64.5449C25.4324 55.8357 25.4214 47.1135 25.4258 38.4043H50.1953V64.5449Z" fill="white"/>
</svg>
