<svg width="160" height="161" viewBox="0 0 160 161" fill="none" xmlns="http://www.w3.org/2000/svg">
<rect width="160" height="160" transform="translate(0 0.599609)" fill="white"/>
<path d="M81.3203 32.5996H59.3271L105.788 80.6206L59.4732 128.6H81.4665L89.6427 120.029L128 80.6206L81.3203 32.5996Z" fill="black"/>
<path d="M48.9516 72.5621C43.3035 72.5666 37.6481 72.5575 32 72.5621V90.1395C37.6481 90.144 43.3035 90.135 48.9516 90.1395C48.9472 84.2834 48.9472 78.4182 48.9516 72.5621Z" fill="black"/>
<path d="M65.4648 55.1348H48.9516C48.9487 60.9414 48.956 66.7555 48.9516 72.5621C54.4535 72.5575 59.9628 72.5666 65.4648 72.5621V55.1348Z" fill="black"/>
<path d="M65.4648 107.717V90.1395C59.9628 90.135 54.4535 90.144 48.9516 90.1395C48.956 95.9957 48.9487 101.861 48.9516 107.717H65.4648Z" fill="black"/>
</svg>
