<?xml version="1.0" encoding="UTF-8"?>
<svg id="Layer_1" data-name="Layer 1" xmlns="http://www.w3.org/2000/svg" viewBox="0 0 2781.69 904.2">
  <defs>
    <style>
      .cls-1 {
        fill: #944811;
      }

      .cls-2 {
        fill: #d9cc68;
      }

      .cls-3 {
        fill: #3ba6b9;
      }

      .cls-4 {
        fill: #1f4b98;
      }

      .cls-5 {
        fill: #2caec1;
      }
    </style>
  </defs>
  <path class="cls-2" d="M428.4,403.2c-4.4,6.8-9,11.8-13.8,15-4.4,2.8-10.6,4.2-18.6,4.2s-16.2-2-24.6-6-17.8-8.2-28.2-12.6c-10.4-4.8-22.4-9.2-36-13.2-13.2-4-28.6-6-46.2-6-26.8,0-47.6,5.6-62.4,16.8-14.8,10.8-22.2,25.2-22.2,43.2,0,12.4,4.2,22.8,12.6,31.2,8.4,8.4,19.4,15.8,33,22.2,14,6,29.8,11.8,47.4,17.4,17.6,5.2,35.6,11,54,17.4,18.8,6.4,37,13.8,54.6,22.2,17.6,8.4,33.2,19,46.8,31.8,14,12.4,25.2,27.6,33.6,45.6,8.4,17.6,12.6,39,12.6,64.2,0,30-5.6,57.8-16.8,83.4-10.8,25.2-26.8,47-48,65.4-21.2,18.4-47.6,32.8-79.2,43.2s-68,15.6-109.2,15.6c-21.2,0-42.2-2-63-6-20.8-3.6-40.6-8.8-59.4-15.6-18.8-7.2-36.4-15.4-52.8-24.6-16.4-9.2-30.6-19.2-42.6-30l38.4-61.8c4.4-7.2,9.8-12.8,16.2-16.8,6.8-4,15.4-6,25.8-6s19.2,2.6,27.6,7.8c8.4,4.8,17.8,10.2,28.2,16.2,10.4,5.6,22.6,11,36.6,16.2,14.4,4.8,32.2,7.2,53.4,7.2,16,0,29.8-1.8,41.4-5.4,11.6-3.6,21-8.4,28.2-14.4,7.2-6.4,12.4-13.4,15.6-21,3.6-8,5.4-16.2,5.4-24.6,0-13.6-4.4-24.6-13.2-33-8.4-8.8-19.6-16.4-33.6-22.8-13.6-6.4-29.4-12.2-47.4-17.4-18-5.2-36.4-11-55.2-17.4-18.4-6.4-36.6-14-54.6-22.8-17.6-8.8-33.4-19.8-47.4-33-13.6-13.6-24.8-30.2-33.6-49.8-8.4-19.6-12.6-43.4-12.6-71.4,0-25.6,5-49.8,15-72.6,10-23.2,25-43.6,45-61.2,20-17.6,44.8-31.6,74.4-42,30-10.4,64.6-15.6,103.8-15.6,44,0,84,7.2,120,21.6s65.6,33.2,88.8,56.4l-37.8,58.8Z"/>
  <path class="cls-5" d="M740.26,0v507.6h27.6c10.4,0,18.6-1.4,24.6-4.2,6-3.2,12-8.8,18-16.8l136.8-182.4c6.8-9.2,14.4-16.2,22.8-21,8.8-4.8,19.8-7.2,33-7.2h151.2l-177.6,225.6c-14,18.8-30.2,33.6-48.6,44.4,9.2,6.4,17.2,13.8,24,22.2,6.8,8.4,13.4,17.8,19.8,28.2l191.4,298.2h-148.8c-12.8,0-23.8-2-33-6-9.2-4.4-16.8-12-22.8-22.8l-139.2-227.4c-5.6-9.6-11.4-15.8-17.4-18.6s-15-4.2-27-4.2h-34.8v279h-165.6V0h165.6Z"/>
  <path class="cls-4" d="M1508.74,266.4c46.4,0,88.6,7.4,126.6,22.2s70.6,36,97.8,63.6c27.2,27.2,48.2,60.4,63,99.6,14.8,39.2,22.2,83.4,22.2,132.6s-7.4,93.6-22.2,133.2c-14.8,39.2-35.8,72.6-63,100.2-27.2,27.6-59.8,48.8-97.8,63.6s-80.2,22.2-126.6,22.2-89.4-7.4-127.8-22.2c-38-14.8-70.6-36-97.8-63.6-27.2-27.6-48.4-61-63.6-100.2-14.8-39.6-22.2-84-22.2-133.2s7.4-93.4,22.2-132.6c15.2-39.2,36.4-72.4,63.6-99.6,27.2-27.6,59.8-48.8,97.8-63.6,38.4-14.8,81-22.2,127.8-22.2ZM1508.74,779.4c47.2,0,82.2-16.2,105-48.6,22.8-32.8,34.2-81.4,34.2-145.8s-11.4-112.2-34.2-144.6c-22.8-32.8-57.8-49.2-105-49.2s-84,16.4-106.8,49.2c-22.8,32.4-34.2,80.6-34.2,144.6s11.4,113,34.2,145.8c22.8,32.4,58.4,48.6,106.8,48.6Z"/>
  <path class="cls-1" d="M2201.32,266.4c46.4,0,88.6,7.4,126.6,22.2s70.6,36,97.8,63.6c27.2,27.2,48.2,60.4,63,99.6,14.8,39.2,22.2,83.4,22.2,132.6s-7.4,93.6-22.2,133.2c-14.8,39.2-35.8,72.6-63,100.2-27.2,27.6-59.8,48.8-97.8,63.6s-80.2,22.2-126.6,22.2-89.4-7.4-127.8-22.2c-38-14.8-70.6-36-97.8-63.6-27.2-27.6-48.4-61-63.6-100.2-14.8-39.6-22.2-84-22.2-133.2s7.4-93.4,22.2-132.6c15.2-39.2,36.4-72.4,63.6-99.6,27.2-27.6,59.8-48.8,97.8-63.6,38.4-14.8,81-22.2,127.8-22.2ZM2201.32,779.4c47.2,0,82.2-16.2,105-48.6,22.8-32.8,34.2-81.4,34.2-145.8s-11.4-112.2-34.2-144.6c-22.8-32.8-57.8-49.2-105-49.2s-84,16.4-106.8,49.2c-22.8,32.4-34.2,80.6-34.2,144.6s11.4,113,34.2,145.8c22.8,32.4,58.4,48.6,106.8,48.6Z"/>
  <path class="cls-3" d="M2781.69,0v894.6h-165.6V0h165.6Z"/>
</svg>